<?xml version="1.0" encoding="UTF-8"?><svg id="Camada_1" xmlns="http://www.w3.org/2000/svg" viewBox="0 0 849.78 600.89"><defs><style>.cls-1{fill:#fff;}.cls-2{fill:#4273b9;}.cls-3{fill:#cac9c9;}.cls-4{fill:#de3e33;}</style></defs><polygon class="cls-3" points="340.51 150.9 275.92 110.01 304.96 86.9 340.51 150.9"/><polygon class="cls-3" points="433.55 128.38 411.41 42.45 457.37 41.27 433.55 128.38"/><polygon class="cls-3" points="530.74 156.23 572.99 83.75 602.03 109.23 530.74 156.23"/><g><path class="cls-3" d="M318.53,316.76c-.15,31.3-59.14,49.17-59.14,49.17,0,0,46.18,29.84,83.99,5.36"/><path class="cls-3" d="M572.26,276.57c-2.97-69-62.59-122.72-133.28-122.72s-130.31,53.72-133.28,122.72c-3.11,72.22,56.5,133.28,133.28,133.28s136.39-61.07,133.28-133.28Z"/></g><g><path class="cls-2" d="M314.05,311.44c-.15,31.3-59.14,49.17-59.14,49.17,0,0,46.18,29.84,83.99,5.36"/><path class="cls-2" d="M567.78,271.24c-2.97-69-62.59-122.72-133.28-122.72s-130.31,53.72-133.28,122.72c-3.11,72.22,56.5,133.28,133.28,133.28s136.39-61.07,133.28-133.28Z"/></g><g><path class="cls-3" d="M384.59,290.94s7.67-1.33,16.61-1,4.06,12.44,4.06,12.44l-20.67-11.44Z"/><path class="cls-3" d="M482.07,290.94s-7.67-1.33-16.61-1-4.06,12.44-4.06,12.44l20.67-11.44Z"/><path class="cls-4" d="M455.68,212.23h-42.59c-6.24,0-11.49,4.69-12.19,10.89l-8.29,72.96h83.56l-8.29-72.96c-.7-6.2-5.95-10.89-12.19-10.89Z"/><path class="cls-1" d="M482.66,322.61c0,5.72-98.67,5.72-98.67,0v-30.97c0-.42,.36-.76,.77-.7,30.88,4.39,63.18,4.6,97.13,0,.41-.06,.77,.29,.77,.7v30.98Z"/></g><polygon class="cls-4" points="335.7 148.53 271.11 107.64 300.14 84.53 335.7 148.53"/><polygon class="cls-4" points="428.74 126.01 406.59 40.08 452.56 38.9 428.74 126.01"/><polygon class="cls-4" points="525.93 153.86 568.18 81.38 597.22 106.86 525.93 153.86"/><g><path class="cls-4" d="M97.42,488.55c0-.28-.02-.56-.07-.84-.3-1.69-.92-3.28-1.87-4.79-1.03-1.63-2.34-3.04-3.95-4.22-1.61-1.19-3.42-2.12-5.45-2.8-2.03-.68-4.15-1.03-6.36-1.03-2,0-3.87,.21-5.61,.63-1.74,.42-3.25,1.07-4.54,1.94-1.29,.87-2.32,1.99-3.08,3.36-.76,1.37-1.15,3-1.15,4.9,0,2.37,.51,4.25,1.54,5.65s2.34,2.54,3.95,3.43c1.61,.9,3.38,1.61,5.33,2.13,1.95,.53,3.84,1.11,5.69,1.74l21.72,7.26c3,1.05,5.82,2.5,8.45,4.34,2.63,1.84,4.91,4.08,6.83,6.71,1.92,2.63,3.44,5.66,4.54,9.08,1.11,3.42,1.66,7.26,1.66,11.53,0,5.79-1.07,11.08-3.2,15.87-2.13,4.79-5.12,8.9-8.96,12.32-3.84,3.42-8.45,6.08-13.82,7.98-5.37,1.9-11.32,2.84-17.85,2.84-4.58,0-8.91-.51-12.99-1.54-4.08-1.03-7.81-2.51-11.17-4.46-3.37-1.95-6.32-4.28-8.84-6.99-1.87-2.01-3.44-4.21-4.71-6.61-.84-1.6-2.51-2.59-4.31-2.59h-.14c-2.7,0-4.9-2.19-4.9-4.9v-13.98c0-2.7,2.19-4.9,4.9-4.9h18.79c2.7,0,4.9,2.19,4.9,4.9h0c0,2.37,.38,4.55,1.15,6.55,.76,2,1.91,3.74,3.44,5.21,1.53,1.47,3.45,2.62,5.76,3.44,2.32,.82,5.03,1.22,8.13,1.22,4.74,0,8.34-1.09,10.82-3.28,2.47-2.18,3.71-5.22,3.71-9.12,0-2-.43-3.67-1.3-5.01-.87-1.34-1.99-2.47-3.36-3.39-1.37-.92-2.9-1.7-4.58-2.33-1.69-.63-3.34-1.21-4.97-1.74l-18.08-5.84c-3.42-1.05-6.73-2.53-9.91-4.42-3.19-1.9-6-4.26-8.45-7.11s-4.4-6.17-5.84-9.99c-1.45-3.82-2.17-8.17-2.17-13.07,0-5.69,1.05-10.75,3.16-15.2,2.1-4.45,5.05-8.2,8.84-11.25,3.79-3.05,8.29-5.37,13.5-6.95s10.92-2.37,17.14-2.37c4.9,0,9.42,.57,13.58,1.7,4.16,1.13,7.88,2.65,11.17,4.54,3.29,1.9,6.08,4.07,8.37,6.51,1.59,1.7,2.93,3.45,4,5.25,.88,1.47,2.47,2.37,4.19,2.37h.06c2.7,0,4.9,2.19,4.9,4.9v14.06c0,2.7-2.19,4.9-4.9,4.9h-18.79c-2.7,0-4.9-2.19-4.9-4.9v-1.63Z"/><path class="cls-4" d="M192.34,576.25c-5.42,0-10.61-.74-15.56-2.21-4.95-1.47-9.57-3.55-13.86-6.24-4.29-2.68-8.19-5.91-11.69-9.67-3.5-3.76-6.49-7.95-8.96-12.56-2.48-4.61-4.4-9.54-5.76-14.81-1.37-5.26-2.05-10.77-2.05-16.5s.68-11.25,2.05-16.54c1.37-5.29,3.29-10.24,5.76-14.85,2.47-4.61,5.46-8.79,8.96-12.56,3.5-3.76,7.4-6.99,11.69-9.67,4.29-2.68,8.91-4.76,13.86-6.24,4.95-1.47,10.13-2.21,15.56-2.21s10.62,.74,15.6,2.21c4.98,1.47,9.61,3.55,13.9,6.24s8.19,5.91,11.69,9.67c3.5,3.76,6.5,7.95,9,12.56,2.5,4.61,4.43,9.56,5.8,14.85,1.37,5.29,2.05,10.81,2.05,16.54s-.68,11.17-2.05,16.46c-1.37,5.29-3.3,10.24-5.8,14.85-2.5,4.61-5.5,8.79-9,12.56s-7.4,6.99-11.69,9.67-8.92,4.77-13.9,6.24c-4.97,1.47-10.17,2.21-15.6,2.21Zm0-24.8c4.58,0,8.78-.99,12.59-2.96,3.82-1.97,7.09-4.66,9.83-8.05,2.74-3.4,4.86-7.34,6.36-11.85,1.5-4.5,2.25-9.28,2.25-14.33s-.76-9.92-2.29-14.45c-1.53-4.53-3.67-8.49-6.44-11.88-2.76-3.39-6.04-6.08-9.83-8.05-3.79-1.97-7.95-2.96-12.48-2.96s-8.69,.99-12.48,2.96c-3.79,1.97-7.06,4.66-9.79,8.05-2.74,3.4-4.88,7.36-6.44,11.88-1.55,4.53-2.33,9.35-2.33,14.45s.78,9.83,2.33,14.33c1.55,4.5,3.7,8.45,6.44,11.85,2.74,3.39,6,6.08,9.79,8.05,3.79,1.97,7.95,2.96,12.48,2.96Z"/><path class="cls-4" d="M323.66,488.55c0-.28-.02-.56-.07-.84-.3-1.69-.92-3.28-1.87-4.79-1.03-1.63-2.34-3.04-3.95-4.22-1.61-1.19-3.42-2.12-5.45-2.8-2.03-.68-4.15-1.03-6.36-1.03-2,0-3.87,.21-5.61,.63-1.74,.42-3.25,1.07-4.54,1.94-1.29,.87-2.32,1.99-3.08,3.36-.76,1.37-1.14,3-1.14,4.9,0,2.37,.51,4.25,1.54,5.65,1.03,1.39,2.34,2.54,3.95,3.43,1.61,.9,3.38,1.61,5.33,2.13,1.95,.53,3.84,1.11,5.69,1.74l21.72,7.26c3,1.05,5.82,2.5,8.45,4.34,2.63,1.84,4.91,4.08,6.83,6.71,1.92,2.63,3.43,5.66,4.54,9.08,1.11,3.42,1.66,7.26,1.66,11.53,0,5.79-1.07,11.08-3.2,15.87-2.13,4.79-5.12,8.9-8.96,12.32-3.84,3.42-8.45,6.08-13.82,7.98s-11.32,2.84-17.85,2.84c-4.58,0-8.91-.51-12.99-1.54-4.08-1.03-7.81-2.51-11.17-4.46-3.37-1.95-6.32-4.28-8.84-6.99-1.87-2.01-3.44-4.21-4.71-6.61-.84-1.6-2.51-2.59-4.31-2.59h-.14c-2.7,0-4.9-2.19-4.9-4.9v-13.98c0-2.7,2.19-4.9,4.9-4.9h18.79c2.7,0,4.9,2.19,4.9,4.9h0c0,2.37,.38,4.55,1.15,6.55,.76,2,1.91,3.74,3.43,5.21,1.53,1.47,3.45,2.62,5.76,3.44,2.32,.82,5.03,1.22,8.13,1.22,4.74,0,8.34-1.09,10.82-3.28,2.47-2.18,3.71-5.22,3.71-9.12,0-2-.43-3.67-1.3-5.01-.87-1.34-1.99-2.47-3.36-3.39-1.37-.92-2.9-1.7-4.58-2.33-1.69-.63-3.34-1.21-4.97-1.74l-18.08-5.84c-3.42-1.05-6.73-2.53-9.91-4.42s-6-4.26-8.45-7.11c-2.45-2.84-4.4-6.17-5.84-9.99-1.45-3.82-2.17-8.17-2.17-13.07,0-5.69,1.05-10.75,3.16-15.2,2.1-4.45,5.05-8.2,8.84-11.25,3.79-3.05,8.29-5.37,13.5-6.95s10.92-2.37,17.14-2.37c4.9,0,9.42,.57,13.58,1.7,4.16,1.13,7.88,2.65,11.17,4.54,3.29,1.9,6.08,4.07,8.37,6.51,1.59,1.7,2.93,3.45,4,5.25,.88,1.47,2.47,2.37,4.19,2.37h.06c2.7,0,4.9,2.19,4.9,4.9v14.06c0,2.7-2.19,4.9-4.9,4.9h-18.79c-2.7,0-4.9-2.19-4.9-4.9v-1.63Z"/></g><g><path class="cls-2" d="M444.6,501.21c-3.17,0-6.15-1.44-8.18-3.88-1.51-1.82-2.93-3.22-4.24-4.19-2.13-1.59-4.43-2.73-6.9-3.41-2.47-.69-5.05-1.03-7.75-1.03-3.98,0-7.68,.89-11.1,2.67s-6.37,4.2-8.86,7.25-4.45,6.61-5.87,10.67c-1.42,4.05-2.13,8.36-2.13,12.91s.7,8.93,2.1,12.98c1.4,4.05,3.33,7.6,5.8,10.63,2.46,3.03,5.41,5.44,8.82,7.22s7.16,2.67,11.24,2.67c2.85,0,5.5-.46,7.97-1.39,2.46-.92,4.71-2.15,6.72-3.66,2.01-1.52,3.78-3.26,5.3-5.23l.05-.06c2.67-3.48,7.12-5.09,11.34-3.9l2.85,.8c6.98,1.95,10.07,10.27,5.86,16.17-.04,.05-.07,.1-.11,.15-2.85,3.96-6.27,7.39-10.28,10.28-4.01,2.89-8.51,5.17-13.51,6.83-5,1.66-10.4,2.49-16.18,2.49-4.88,0-9.56-.66-14.01-1.99-4.46-1.33-8.62-3.2-12.48-5.62-3.87-2.42-7.37-5.33-10.53-8.75-3.15-3.41-5.84-7.2-8.07-11.34-2.23-4.15-3.96-8.61-5.19-13.37-1.23-4.77-1.85-9.73-1.85-14.9,0-7.73,1.35-14.97,4.05-21.73s6.4-12.66,11.1-17.71,10.21-9.03,16.54-11.95c6.33-2.92,13.15-4.37,20.45-4.37,5.83,0,10.74,.72,14.72,2.17,3.22,1.17,6.7,3.26,10.44,6.26,1.86,1.5,4.19,2.31,6.58,2.31h1.51c5.83,0,10.56,4.73,10.56,10.56v2.91c0,5.83-4.73,10.56-10.56,10.56h-6.18Z"/><path class="cls-2" d="M482.04,502.57h22.83c2.83,0,5.12,2.29,5.12,5.12v43.96c0,2.83,2.29,5.12,5.12,5.12h0c2.83,0,5.12,2.29,5.12,5.12v9.25c0,2.83-2.29,5.12-5.12,5.12h-33.07c-2.83,0-5.12-2.29-5.12-5.12v-9.25c0-2.83,2.29-5.12,5.12-5.12h.85c2.83,0,5.12-2.29,5.12-5.12v-24.47c0-2.83-2.29-5.12-5.12-5.12h-.85c-2.83,0-5.12-2.29-5.12-5.12v-9.25c0-2.83,2.29-5.12,5.12-5.12Zm4.84-23.76c0-1.75,.32-3.4,.96-4.94,.64-1.54,1.53-2.88,2.67-4.02s2.48-2.04,4.02-2.7c1.54-.66,3.21-1,5.01-1,1.71,0,3.32,.33,4.84,1,1.52,.66,2.85,1.56,3.98,2.7s2.04,2.48,2.7,4.02c.66,1.54,1,3.19,1,4.94s-.33,3.4-1,4.94c-.67,1.54-1.56,2.88-2.7,4.02s-2.47,2.04-3.98,2.7c-1.52,.66-3.13,1-4.84,1-1.8,0-3.47-.33-5.01-1-1.54-.66-2.88-1.56-4.02-2.7s-2.03-2.48-2.67-4.02c-.64-1.54-.96-3.19-.96-4.94Z"/><path class="cls-2" d="M598.17,529.38h-16.39c-.99,0-1.8-.8-1.8-1.8v-3.97c0-1.03-.87-1.85-1.9-1.8-1.22,.06-2.36,.17-3.43,.35-1.61,.26-3.02,.7-4.23,1.32-1.21,.62-2.23,1.47-3.06,2.56-.79,1.04-1.36,2.33-1.7,3.84-.03,.14-.04,.28-.04,.42v24.66c0,.99,.8,1.8,1.8,1.8h11.41c.99,0,1.8,.8,1.8,1.8v15.89c0,.99-.8,1.8-1.8,1.8h-44.49c-.99,0-1.8-.8-1.8-1.8v-15.89c0-.99,.8-1.8,1.8-1.8h7.43c.99,0,1.8-.8,1.8-1.8v-31.11c0-.99-.8-1.8-1.8-1.8h-7.29c-.99,0-1.8-.8-1.8-1.8v-15.89c0-.99,.8-1.8,1.8-1.8h29.19c.99,0,1.8,.8,1.8,1.8h0c0,1.39,1.5,2.25,2.7,1.54,1.36-.8,2.81-1.46,4.34-1.99,2.61-.9,5.45-1.35,8.54-1.35s6.35,.02,9.67,.07c2.64,.04,5.12,.06,7.46,.07,.99,0,1.79,.81,1.79,1.8v23.08c0,.99-.8,1.8-1.8,1.8Z"/><path class="cls-2" d="M670.25,528.03c-1.76,0-3.47-.68-4.7-1.94-1.58-1.62-3.29-2.9-5.12-3.86-2.45-1.27-5.34-1.83-8.65-1.68-.16,0-.32,0-.48,0-2.66-.15-5.08,.23-7.26,1.15-2.25,.95-4.2,2.28-5.83,3.98s-2.9,3.73-3.81,6.08c-.9,2.35-1.35,4.99-1.35,7.93,0,2.61,.47,5.07,1.42,7.4,.95,2.32,2.24,4.33,3.88,6.01,1.64,1.68,3.58,3,5.83,3.95,2.06,.87,4.29,1.42,6.68,1.65,.45,.04,.91,.04,1.36,0,1.96-.22,3.76-.66,5.4-1.32,1.83-.73,3.45-1.68,4.87-2.85,1.42-1.16,2.64-2.47,3.66-3.91l.03-.04c1.64-2.34,4.55-3.44,7.3-2.68l7.15,1.98c4.29,1.19,6.22,6.13,3.92,9.94-.2,.33-.41,.67-.63,1.01-1.97,3.08-4.53,5.89-7.68,8.43-3.15,2.54-6.9,4.64-11.24,6.29s-9.28,2.49-14.83,2.49-10.84-1.03-15.58-3.09c-4.74-2.06-8.82-4.87-12.23-8.43s-6.08-7.73-8-12.52c-1.92-4.79-2.88-9.93-2.88-15.43s.98-10.51,2.95-15.19c1.97-4.67,4.68-8.75,8.14-12.23,3.46-3.49,7.58-6.2,12.34-8.14,4.77-1.94,9.95-2.82,15.54-2.63,3.98-.19,7.85,.26,11.59,1.35,3.21,.94,6.28,2.27,9.21,4.01,1.03,.61,2.23,.9,3.43,.9h5.5c3.69,0,6.69,2.99,6.69,6.69v8.04c0,3.69-2.99,6.69-6.69,6.69h-9.95Z"/><path class="cls-2" d="M698.67,465.58h24.86c2.31,0,4.18,1.87,4.18,4.18v82.83c0,2.31,1.87,4.18,4.18,4.18h3.03c2.31,0,4.18,1.87,4.18,4.18v11.14c0,2.31-1.87,4.18-4.18,4.18h-36.24c-2.31,0-4.18-1.87-4.18-4.18v-11.14c0-2.31,1.87-4.18,4.18-4.18h3.03c2.31,0,4.18-1.87,4.18-4.18v-63.34c0-2.31-1.87-4.18-4.18-4.18h-3.03c-2.31,0-4.18-1.87-4.18-4.18v-11.14c0-2.31,1.87-4.18,4.18-4.18Z"/><path class="cls-2" d="M770.8,546.07h0c.01,.11,.03,.22,.06,.32,.53,2.07,1.4,3.89,2.63,5.46,1.26,1.61,2.74,2.96,4.45,4.05,1.71,1.09,3.6,1.91,5.69,2.45,2.09,.55,4.2,.82,6.33,.82s4.16-.13,6.08-.39c1.92-.26,3.78-.62,5.58-1.07,1.8-.45,3.56-.97,5.26-1.56,1.21-.42,2.43-.86,3.67-1.31,.87-.32,1.85,.04,2.29,.86l6.22,11.59c.47,.88,.16,1.97-.69,2.49-2.11,1.26-4.08,2.37-5.9,3.3-2.25,1.16-4.52,2.12-6.79,2.88s-4.69,1.32-7.25,1.67-5.55,.53-8.96,.53c-6.4,0-12.09-1.06-17.07-3.17-4.98-2.11-9.16-4.97-12.55-8.57-3.39-3.6-5.97-7.82-7.75-12.66s-2.67-9.96-2.67-15.36,.94-10.48,2.81-15.22c1.87-4.74,4.52-8.88,7.93-12.41,3.41-3.53,7.49-6.32,12.23-8.36,4.74-2.04,10-3.06,15.79-3.06s10.92,.96,15.4,2.88,8.26,4.58,11.34,7.97c3.08,3.39,5.45,7.37,7.11,11.95,1.65,4.56,2.55,9.46,2.7,14.7,0,.04,0,.07,0,.11,.14,1.17,.22,2.32,.24,3.47,.01,.59,0,1.18,0,1.78-.03,1.01-.86,1.81-1.87,1.81h-50.45c-1.1,0-1.96,.95-1.85,2.04Zm16.8-28.93c-2.66,0-4.92,.32-6.79,.96-1.87,.64-3.45,1.52-4.73,2.63-1.28,1.11-2.3,2.38-3.06,3.81-.33,.61-.62,1.24-.89,1.88-.51,1.24,.38,2.6,1.72,2.6h25.78c1.28,0,2.15-1.25,1.77-2.47-.23-.72-.49-1.41-.78-2.09-.62-1.42-1.47-2.68-2.56-3.77-1.09-1.09-2.48-1.96-4.16-2.6-1.68-.64-3.78-.96-6.29-.96Z"/></g></svg>