<?xml version="1.0" encoding="UTF-8"?><svg id="Camada_1" xmlns="http://www.w3.org/2000/svg" viewBox="0 0 26.86 35.93"><defs><style>.cls-1{fill:#de3e33;}</style></defs><path class="cls-1" d="M13.67,1.27C6.67,1.27,1,6.77,1,13.56c0,.29,.01,.57,.03,.85h0c-.01,.68,.05,1.25,.11,1.66,.12,.75,.3,1.31,.46,1.78,.25,.76,.51,1.31,.59,1.47,.11,.22,.35,.7,.83,1.45,.35,.55,.53,.77,1.33,1.85,.73,.98,1.28,1.73,1.69,2.3,.38,.52,.42,.58,1.09,1.5,.7,.96,.84,1.16,1.83,2.52,1.78,2.45,1.65,2.29,2.37,3.26,.52,.71,1.04,1.42,1.56,2.12l.35,.47c.22,.3,.67,.3,.89,0l.35-.47c.52-.71,1.04-1.42,1.56-2.12,.71-.98,.59-.81,2.37-3.26,.98-1.35,1.13-1.55,1.82-2.52,.67-.93,.71-.99,1.09-1.5,.41-.57,.96-1.32,1.69-2.3,.8-1.08,.98-1.3,1.33-1.85,.48-.75,.72-1.23,.83-1.45,.07-.15,.33-.7,.59-1.47,.16-.47,.34-1.03,.46-1.78,.06-.37,.11-.88,.11-1.47,.03-.34,.04-.69,.04-1.04,0-6.79-5.67-12.3-12.67-12.3Zm0,19.27c-3.85,0-6.97-3.12-6.97-6.97s3.12-6.97,6.97-6.97,6.97,3.12,6.97,6.97-3.12,6.97-6.97,6.97Z"/></svg>